<?xml version="1.0" encoding="UTF-8"?>
<svg id="Calque_1" data-name="Calque 1" xmlns="http://www.w3.org/2000/svg" xmlns:xlink="http://www.w3.org/1999/xlink" viewBox="0 0 351.31 396.97">
  <defs>
    <style>
      .cls-1 {
        fill: none;
      }

      .cls-2 {
        clip-path: url(#clippath);
      }

      .cls-3 {
        fill: #00cbff;
      }

      .cls-4 {
        fill: #fff;
      }

      .cls-5 {
        fill: #f60;
      }

      .cls-6 {
        fill: #cb0066;
      }

      .cls-7 {
        fill: #980066;
      }
    </style>
    <clipPath id="clippath">
      <path class="cls-1" d="m318.81,181.55c0,81.15-65.78,146.94-146.94,146.94S24.93,262.71,24.93,181.55c0-67.34,45.31-124.1,107.09-141.47,12.67-3.56,26.04-5.47,39.85-5.47,7.28,0,14.43.53,21.42,1.55,19.22,2.8,37.23,9.34,53.28,18.83,41.2,24.36,69.47,68.27,72.04,118.96.13,2.52.2,5.05.2,7.6Z"/>
    </clipPath>
  </defs>
  <g class="cls-2">
    <g>
      <path class="cls-5" d="m326.9,175.22c-3.11,10.87-9.5,19.77-19.8,24.94-34.45,17.28-107.32-9.83-131.8-52.89-22.66-39.88-4.87-95.28,34.54-103.76,13.17-2.84,27.27-.11,40.75,5.71,43.64,25.8,73.58,72.31,76.31,126Z"/>
      <path class="cls-6" d="m101.89,165.34c-2.25,15.41-6.09,41.61,8.88,65.21,20.05,31.63,67.98,49.3,84.69,36.29,31.9-24.84-36.48-171.84-68.64-162.46-16.73,4.88-23.63,52.05-24.93,60.96Z"/>
      <path class="cls-3" d="m214.62,326.01c-24.87-13.46-12.66-95.9,11.66-142.7.25-.47.61-1.17,1.08-2.06,11.81-22.31,41.12-66.32,63.96-63.03,19.29,2.78,30.58,38.79,33.59,60,9.59,67.57-46.18,116.81-51.43,121.31-11.69,10-41.78,35.74-58.87,26.49Z"/>
      <path class="cls-7" d="m183.89,32.77c-25.48,8.82-32.14,52.91-34.15,66.16-.36,2.36-.55,4.05-.6,4.44-4.53,36.38,4.85,92.58,36.9,103.26,32.86,10.95,92-35.33,94.16-87.58,1.05-25.36-11.22-55.09-33.64-70.44-12.87-8.81-28.85-12.73-33.36-13.75-14.31-3.23-21.45-4.82-29.31-2.1Z"/>
      <path class="cls-3" d="m115.52,307.13c10.85-23.59-47.88-67.17-42.25-75.5,3.44-5.08,29.86,4.4,54.98,20.07,42.33,26.4,79.08,69.18,70.95,81.36-1.22,1.83-4.15,2.49-9.96,3.73-13.94,2.99-26.64,2.03-48.87-2.8-32.06-6.96-33.81-11.07-34.14-12.93-.92-5.11,6.26-7.34,9.29-13.93Z"/>
      <path class="cls-3" d="m153.57,42.66c-3.87-17.83-53.38-8.72-91.37,30.8-9.65,10.05-32.71,34.04-36.22,62.33-6.16,49.73,52.44,77.93,73.85,55.77,13.19-13.66,3.92-37.81,23.64-87.09,15.76-39.37,32.46-50.91,30.09-61.8Z"/>
      <path class="cls-6" d="m181.33,330.2c-22.73-9.53-36.53-36.86-32.56-58.34,4.25-23.01,24.68-25.39,65.68-61.68,38.04-33.66,45.12-60.02,53.71-56.09,11.13,5.08,1.91,52.59-4.72,86.21-14.33,72.7-31.37,83.84-37.41,87.19-.91.51-22.5,12.03-44.71,2.71Z"/>
      <path class="cls-6" d="m43.27,109.17c11.58-1.71,23.13,15.71,40.95,42.6,16.28,24.57,26.26,39.62,29.59,61.31,5.59,36.36-8.6,84.18-29.99,88.04-24.85,4.49-61.02-49.99-66.71-102.17-4.38-40.15,8.37-87.17,26.17-89.79Z"/>
      <path class="cls-5" d="m55.66,280.29c-10.9-18.23-11.53-35.26-12.35-68.59-1.16-47.36,6.21-110.97,20.27-111.97,5.61-.4,10.49,9.3,14.6,17.69,17.37,35.42,12.51,65.47,13.51,90.17,2.86,70.44,53.69,104.88,41.74,116.62-10.4,10.21-56.52-8.37-77.78-43.92Z"/>
      <path class="cls-5" d="m217.99,178.69c-9.71,5.7-26.22,15.38-35.5,35.18-12.44,26.53-8.24,63.44,4.46,67.53,24.23,7.82,89.57-100.56,74.31-115.61-7.94-7.83-37.66,9.61-43.27,12.9Z"/>
      <path class="cls-5" d="m194.16,32.27c-.73,5.02-2.86,12.89-7.65,25.57-12.47,33-18.71,49.5-26.94,49.8-14.64.53-40.63-44.04-30.31-71.22,13.42-3.77,27.58-5.79,42.21-5.79,7.71,0,15.28.56,22.69,1.64Z"/>
      <path class="cls-5" d="m106.76,162.85c-10.93-5.41-10.94-53.39,14.12-62.74,11.31-4.22,28.13-.73,32.15,8.63,7.93,18.46-33.8,60.28-46.27,54.11Z"/>
      <path class="cls-6" d="m152.62,89.04c-31.02-24.76-36.69-48.57-44.1-46.53-7.73,2.12-13.52,31.28.75,50.15,18.23,24.11,58.75,17.6,60.62,10.94.8-2.85-5.61-5.24-17.27-14.55Z"/>
      <path class="cls-7" d="m116.47,183.36c-14.21,3.45-16.88,99.91,14.75,111.93,11.33,4.3,27.24-2.15,33.07-12.21,8-13.81-3.5-33.56-21.88-65.12-13.91-23.89-20.86-35.83-25.95-34.6Z"/>
      <path class="cls-3" d="m131.69,154.27c-6.73.56-17.29,29.78-4.57,51.97,12.57,21.93,42.55,27.73,45.58,23.16,1.4-2.11-3-6.31-9.32-14.85-24.86-33.59-25.09-60.82-31.69-60.27Z"/>
    </g>
  </g>
  <g>
    <path class="cls-4" d="m289.01,229.8c.17.17.34.34.52.51.68,1.11.96,2.38.83,3.79-.13,1.41-.53,2.68-1.22,3.79-1.97,2.91-4.84,5.26-8.61,7.06-5.14,2.48-11.81,3.42-20.03,2.82-14.98-1.11-30.77-10.53-47.38-28.25-.51-.42-.96-.73-1.35-.9-.39-.17-.71-.15-.97.07-.26.21-.47.45-.64.71-.17.26-.32.66-.45,1.22-.13.56-.24,1.01-.32,1.35-.08.34-.13.77-.13,1.29-.34,2.14-.39,4.2-.13,6.17.26,1.97.21,4.09-.13,6.35-.34,2.27-1.11,4.13-2.31,5.59-1.71,1.8-3.81,2.48-6.29,2.06-2.49-.43-4.33-1.71-5.52-3.86-.51-.85-.92-1.8-1.22-2.82-.3-1.03-.52-1.99-.64-2.89-.13-.9-.21-1.99-.26-3.28-.05-1.29-.07-2.33-.07-3.15s.04-1.88.13-3.21c.08-1.32.13-2.33.13-3.01,0-1.54.09-4.75.26-9.63.17-4.88.26-8.65.26-11.3,0-15.41-.05-26.62-.13-33.64-.08-6.84,1.5-11.51,4.75-14,3.17-2.48,7.58-3.72,13.23-3.72,6.5,0,12.11,1.37,16.82,4.11,5.99,3.59,10.31,9.01,12.97,16.24,2.65,7.24,3.38,14.19,2.18,20.87-1.02,5.73-4.24,11.04-9.63,15.92l-.39.26c-.43.43-1.11,1.22-2.05,2.38s-1.5,1.86-1.67,2.12c-.34.26-.39.71-.13,1.35s.47,1.18.64,1.61.55,1,1.15,1.73c.6.73,1.11,1.33,1.54,1.8.43.48,1,1.07,1.73,1.8.73.73,1.26,1.26,1.6,1.61s.81.77,1.41,1.28c.6.52.94.82,1.03.9,4.36,4.03,9.2,7.32,14.51,9.89,9.42,4.45,17.46,4.28,24.14-.52,1.2-.85,2.12-1.49,2.76-1.92s1.58-.92,2.82-1.48c1.24-.55,2.38-.75,3.41-.57,1.02.17,1.96.68,2.82,1.54Zm-68.44-34.93c1.37-.68,2.61-1.62,3.73-2.83,2.23-2.14,3.77-4.69,4.62-7.64.85-2.95,1.02-5.76.51-8.41-.51-2.65-1.58-4.83-3.21-6.55-1.89-1.97-3.81-3.3-5.78-3.98-1.11-.34-2.31-.51-3.59-.51-.95,0-1.97.08-3.08.26-.17,0-.43.04-.77.13-2.14.26-3.42.73-3.85,1.42-.09.08-.17.17-.26.26-.09,1.2-.09,2.95,0,5.27.08.85.13,1.54.13,2.05.09,3.26.13,6.89.13,10.91,0,.94-.04,2.35-.13,4.24-.17,2.74-.21,4.79-.13,6.16,0,.52.26.9.77,1.16.34.08.6.13.77.13h.51c.51,0,1.2-.04,2.05-.13.43-.09.73-.13.9-.13,2.4-.17,4.62-.77,6.68-1.8Z"/>
    <path class="cls-4" d="m174.94,189.61c1.07,0,2,.49,2.78,1.46.78.98,1.18,2.13,1.18,3.46s-.39,2.49-1.18,3.46c-.78.97-1.71,1.46-2.78,1.46h-25.58c-1.07,0-2-.49-2.78-1.46-.78-.98-1.18-2.13-1.18-3.46s.39-2.48,1.18-3.46c.78-.97,1.71-1.46,2.78-1.46h25.58Z"/>
    <path class="cls-4" d="m169.24,109.71c-1.14-2.14-2.91-2.11-5.3.1-2.39,2.22-3.73,4.78-4.01,7.71-.14,1.28,0,2.35.43,3.21.64,1.36,1.61,2.68,2.89,3.96,1.29,1.29,2.55,2.37,3.8,3.27,1.25.89,2.62,1.94,4.12,3.16s2.68,2.35,3.53,3.42c.86.93,1.6,1.93,2.25,2.99,2.5,3.78,3.71,8.49,3.64,14.13-.14,5.85-1.96,10.61-5.45,14.28-3.5,3.67-8.17,5.83-14.02,6.47-3.64.36-6.76.19-9.36-.48-2.61-.68-4.94-2.19-7.01-4.55-1.35-1.49-2.34-3.06-2.94-4.71-.61-1.64-.66-3.32-.16-5.03.5-1.71,1.71-3.1,3.64-4.17.57-.36,1.1-.57,1.6-.64.5-.07.98,0,1.44.21s.87.43,1.23.64c.36.21.8.52,1.34.91s.91.66,1.12.8c.21.14.43.39.64.75s.39.61.53.75c.29.21.82.77,1.6,1.66.79.89,1.5,1.5,2.14,1.82s1.43.3,2.36-.05c3.99-1.29,6.44-3.61,7.33-6.95.89-3.35.02-6.53-2.62-9.52-1.14-1.35-3.46-3.37-6.95-6.05-3.5-2.68-5.89-5.01-7.17-7.01-1.92-3.07-3.12-6.3-3.58-9.68-.47-3.39-.21-6.55.75-9.47.96-2.92,2.4-5.54,4.33-7.86,1.93-2.31,4.48-4.05,7.65-5.19,3.18-1.14,6.58-1.46,10.22-.97,1.71.21,3.55.75,5.51,1.61,1.96.85,3.75,1.96,5.35,3.32,1.6,1.35,2.55,2.91,2.84,4.65.28,1.75-.4,3.58-2.03,5.51-1.79,1.93-3.89,2.36-6.32,1.29-2.64-1.14-4.42-2.57-5.35-4.28Z"/>
    <path class="cls-4" d="m120.96,159.27c-1.37-2.57-3.48-2.52-6.35.13-2.87,2.65-4.47,5.74-4.82,9.25-.17,1.54,0,2.82.52,3.85.77,1.62,1.92,3.21,3.46,4.75,1.54,1.54,3.06,2.85,4.56,3.92,1.49,1.07,3.15,2.33,4.94,3.79s3.21,2.82,4.24,4.11c1.02,1.11,1.93,2.31,2.7,3.59,2.99,4.54,4.45,10.19,4.37,16.95-.17,7.02-2.36,12.74-6.55,17.14-4.2,4.41-9.8,7-16.82,7.77-4.37.43-8.11.24-11.24-.57-3.12-.82-5.92-2.63-8.41-5.46-1.63-1.8-2.81-3.68-3.53-5.65-.73-1.97-.79-3.98-.19-6.03.6-2.06,2.05-3.73,4.36-5.01.68-.43,1.33-.68,1.93-.77s1.18,0,1.73.26c.55.26,1.04.51,1.48.77.42.26.96.62,1.6,1.09s1.09.79,1.35.97.51.47.77.9.47.73.64.9c.34.26.98.92,1.93,1.99.94,1.07,1.8,1.8,2.57,2.18.77.39,1.71.37,2.83-.06,4.79-1.54,7.72-4.32,8.79-8.34s.02-7.84-3.15-11.43c-1.37-1.62-4.15-4.04-8.34-7.25-4.2-3.21-7.06-6.01-8.61-8.41-2.31-3.68-3.75-7.56-4.3-11.62-.56-4.06-.26-7.85.9-11.36s2.89-6.66,5.2-9.44c2.31-2.78,5.37-4.86,9.18-6.23,3.81-1.37,7.9-1.76,12.26-1.15,2.06.26,4.26.9,6.61,1.92,2.36,1.03,4.49,2.36,6.42,3.98s3.06,3.49,3.4,5.59c.34,2.1-.47,4.3-2.44,6.61-2.14,2.31-4.67,2.82-7.58,1.54-3.17-1.37-5.31-3.08-6.42-5.14Z"/>
  </g>
</svg>